<svg xmlns="http://www.w3.org/2000/svg" viewBox="0 0 128 128" role="img" aria-label="Uber">
  <rect width="128" height="128" rx="28" fill="#000000"/>
  <path d="M64 24c18.8 0 34.2 13.5 36.8 31.1H83.4c-2.1-7.2-8.7-12.4-19.4-12.4-10.5 0-18.2 5.3-20.3 13.8h-17.8C27 40.8 41.8 24 64 24Z" fill="#FFFFFF"/>
  <path d="M27.2 55.4h17.8c2.1 8.5 9.8 13.8 20.3 13.8 10.7 0 17.3 5.2 19.4 12.4h17.4C98.2 77.1 82.8 90.6 64 90.6c-22.2 0-36.9-16.8-36.8-35.2Z" fill="#FFFFFF"/>
  <circle cx="64" cy="64" r="10" fill="#000000"/>
</svg>
